HIERARCHY
ROOT Hips
{
  OFFSET 5.84602e-005 68.8428 3.50346
  CHANNELS 6 Xposition Yposition Zposition Zrotation Xrotation Yrotation
  JOINT Spine
  {
    OFFSET 0 8.597 -4.6522
    CHANNELS 3 Zrotation Xrotation Yrotation
    JOINT Spine1
    {
      OFFSET 0 7.8454 0.4098
      CHANNELS 3 Zrotation Xrotation Yrotation
      JOINT Spine2
      {
        OFFSET 0 9.7078 -2.1609
        CHANNELS 3 Zrotation Xrotation Yrotation
        JOINT Neck
        {
          OFFSET 0 21.8761 -0.4549
          CHANNELS 3 Zrotation Xrotation Yrotation
          JOINT Head
          {
            OFFSET 0 12.3537 3.3602
            CHANNELS 3 Zrotation Xrotation Yrotation
            End Site
            {
              OFFSET 0.0001 18.9506 0.5657
            }
          }
        }
        JOINT LeftShoulder
        {
          OFFSET 2.2086 21.1115 7.2329
          CHANNELS 3 Zrotation Xrotation Yrotation
          JOINT LeftArm
          {
            OFFSET 13.1193 3.0282 -4.8998
            CHANNELS 3 Zrotation Xrotation Yrotation
            JOINT LeftForeArm
            {
              OFFSET 27.4081 -0.0973053 -0.2375
              CHANNELS 3 Zrotation Xrotation Yrotation
              JOINT LeftHand
              {
                OFFSET 22.8641 0.0662994 -0.1369
                CHANNELS 3 Zrotation Xrotation Yrotation
                JOINT LeftHandIndex1
                {
                  OFFSET 8.8614 0.775009 2.4612
                  CHANNELS 3 Zrotation Xrotation Yrotation
                  JOINT LeftHandIndex2
                  {
                    OFFSET 3.3146 -0.808304 0.5841
                    CHANNELS 3 Zrotation Xrotation Yrotation
                    JOINT LeftHandIndex3
                    {
                      OFFSET 2.2628 -0.552002 0.3989
                      CHANNELS 3 Zrotation Xrotation Yrotation
                      End Site
                      {
                        OFFSET 1.6102 -0.4807 0.2612
                      }
                    }
                  }
                }
                JOINT LeftHandMiddle1
                {
                  OFFSET 8.9937 0.895004 0.2143
                  CHANNELS 3 Zrotation Xrotation Yrotation
                  JOINT LeftHandMiddle2
                  {
                    OFFSET 4.0984 0.0113983 -0.0242
                    CHANNELS 3 Zrotation Xrotation Yrotation
                    JOINT LeftHandMiddle3
                    {
                      OFFSET 2.2716 0.00689697 -0.0138001
                      CHANNELS 3 Zrotation Xrotation Yrotation
                      End Site
                      {
                        OFFSET 2.0404 -0.1441 0.0027
                      }
                    }
                  }
                }
                JOINT LeftHandRing1
                {
                  OFFSET 8.5234 0.597198 -2.0164
                  CHANNELS 3 Zrotation Xrotation Yrotation
                  JOINT LeftHandRing2
                  {
                    OFFSET 3.7188 -0.188293 -0.2328
                    CHANNELS 3 Zrotation Xrotation Yrotation
                    JOINT LeftHandRing3
                    {
                      OFFSET 2.1191 -0.106598 -0.1332
                      CHANNELS 3 Zrotation Xrotation Yrotation
                      End Site
                      {
                        OFFSET 1.8737 -0.2304 -0.0886
                      }
                    }
                  }
                }
                JOINT LeftHandPinky1
                {
                  OFFSET 7.9094 -0.601089 -3.4825
                  CHANNELS 3 Zrotation Xrotation Yrotation
                  JOINT LeftHandPinky2
                  {
                    OFFSET 2.2874 -0.477005 -0.6314
                    CHANNELS 3 Zrotation Xrotation Yrotation
                    JOINT LeftHandPinky3
                    {
                      OFFSET 1.6774 -0.349396 -0.4633
                      CHANNELS 3 Zrotation Xrotation Yrotation
                      End Site
                      {
                        OFFSET 1.4888 -0.4091 -0.3416
                      }
                    }
                  }
                }
                JOINT LeftHandThumb1
                {
                  OFFSET 1.833 -1.3875 1.3896
                  CHANNELS 3 Zrotation Xrotation Yrotation
                  JOINT LeftHandThumb2
                  {
                    OFFSET 3.4129 -1.121 2.5732
                    CHANNELS 3 Zrotation Xrotation Yrotation
                    JOINT LeftHandThumb3
                    {
                      OFFSET 2.2474 -0.804199 1.6192
                      CHANNELS 3 Zrotation Xrotation Yrotation
                      End Site
                      {
                        OFFSET 1.6527 -0.5689 1.1317
                      }
                    }
                  }
                }
              }
            }
          }
        }
        JOINT RightShoulder
        {
          OFFSET -2.2086 21.1115 7.2329
          CHANNELS 3 Zrotation Xrotation Yrotation
          JOINT RightArm
          {
            OFFSET -13.1216 3.0287 -4.9007
            CHANNELS 3 Zrotation Xrotation Yrotation
            JOINT RightForeArm
            {
              OFFSET -27.4081 -0.0973053 -0.2375
              CHANNELS 3 Zrotation Xrotation Yrotation
              JOINT RightHand
              {
                OFFSET -22.8641 0.0664063 -0.1369
                CHANNELS 3 Zrotation Xrotation Yrotation
                JOINT RightHandIndex1
                {
                  OFFSET -8.8614 0.774994 2.4612
                  CHANNELS 3 Zrotation Xrotation Yrotation
                  JOINT RightHandIndex2
                  {
                    OFFSET -3.3146 -0.808304 0.5841
                    CHANNELS 3 Zrotation Xrotation Yrotation
                    JOINT RightHandIndex3
                    {
                      OFFSET -2.2628 -0.552002 0.3989
                      CHANNELS 3 Zrotation Xrotation Yrotation
                      End Site
                      {
                        OFFSET -1.6102 -0.4807 0.2612
                      }
                    }
                  }
                }
                JOINT RightHandMiddle1
                {
                  OFFSET -8.9937 0.894989 0.2143
                  CHANNELS 3 Zrotation Xrotation Yrotation
                  JOINT RightHandMiddle2
                  {
                    OFFSET -4.0984 0.0113983 -0.0242
                    CHANNELS 3 Zrotation Xrotation Yrotation
                    JOINT RightHandMiddle3
                    {
                      OFFSET -2.2716 0.00691223 -0.0138001
                      CHANNELS 3 Zrotation Xrotation Yrotation
                      End Site
                      {
                        OFFSET -2.0404 -0.1441 0.0027
                      }
                    }
                  }
                }
                JOINT RightHandRing1
                {
                  OFFSET -8.5234 0.597198 -2.0164
                  CHANNELS 3 Zrotation Xrotation Yrotation
                  JOINT RightHandRing2
                  {
                    OFFSET -3.7188 -0.188309 -0.2328
                    CHANNELS 3 Zrotation Xrotation Yrotation
                    JOINT RightHandRing3
                    {
                      OFFSET -2.1191 -0.106598 -0.1332
                      CHANNELS 3 Zrotation Xrotation Yrotation
                      End Site
                      {
                        OFFSET -1.8737 -0.2304 -0.0886
                      }
                    }
                  }
                }
                JOINT RightHandPinky1
                {
                  OFFSET -7.9094 -0.601105 -3.4825
                  CHANNELS 3 Zrotation Xrotation Yrotation
                  JOINT RightHandPinky2
                  {
                    OFFSET -2.2874 -0.477005 -0.6314
                    CHANNELS 3 Zrotation Xrotation Yrotation
                    JOINT RightHandPinky3
                    {
                      OFFSET -1.6774 -0.349396 -0.4633
                      CHANNELS 3 Zrotation Xrotation Yrotation
                      End Site
                      {
                        OFFSET -1.4888 -0.4091 -0.3416
                      }
                    }
                  }
                }
                JOINT RightHandThumb1
                {
                  OFFSET -1.833 -1.38751 1.3896
                  CHANNELS 3 Zrotation Xrotation Yrotation
                  JOINT RightHandThumb2
                  {
                    OFFSET -3.41299 -1.12099 2.5732
                    CHANNELS 3 Zrotation Xrotation Yrotation
                    JOINT RightHandThumb3
                    {
                      OFFSET -2.24741 -0.804108 1.6192
                      CHANNELS 3 Zrotation Xrotation Yrotation
                      End Site
                      {
                        OFFSET -1.6527 -0.5689 1.1317
                      }
                    }
                  }
                }
              }
            }
          }
        }
      }
    }
  }
  JOINT RightUpLeg
  {
    OFFSET -9.1966 3.8861 -0.7581
    CHANNELS 3 Zrotation Xrotation Yrotation
    JOINT RightLeg
    {
      OFFSET -0.7359 -41.0265 0
      CHANNELS 3 Zrotation Xrotation Yrotation
      JOINT RightFoot
      {
        OFFSET 0 -40.2855 0
        CHANNELS 3 Zrotation Xrotation Yrotation
        JOINT RightToeBase
        {
          OFFSET 0 -5.6122 11.7359
          CHANNELS 3 Zrotation Xrotation Yrotation
          End Site
          {
            OFFSET 0 0 7.8731
          }
        }
      }
    }
  }
  JOINT LeftUpLeg
  {
    OFFSET 9.1965 3.8864 -0.7581
    CHANNELS 3 Zrotation Xrotation Yrotation
    JOINT LeftLeg
    {
      OFFSET 0.7359 -41.0268 0
      CHANNELS 3 Zrotation Xrotation Yrotation
      JOINT LeftFoot
      {
        OFFSET 0 -40.2855 0
        CHANNELS 3 Zrotation Xrotation Yrotation
        JOINT LeftToeBase
        {
          OFFSET 0 -5.6122 11.7359
          CHANNELS 3 Zrotation Xrotation Yrotation
          End Site
          {
            OFFSET 0 0 7.8731
          }
        }
      }
    }
  }
}
MOTION
Frames:	4
Frame Time:	0.0333333
5.84602e-005 68.8428 3.50346 0 0 -0 0 0 -0 0 0 -0 0 0 -0 0 0 -0 0 0 -0 0 0 -0 0 0 -0 0 0 -0 0 0 -0 0 0 -0 0 0 -0 0 0 -0 0 0 -0 -0.0146107 -8.87603e-005 -2.63497e-007 2.99804e-018 -2.42657e-020 -1.42182e-022 0 0 -0 -0.0187562 -0.001176 5.858e-005 5.06224e-018 3.88251e-019 1.21329e-020 0 0 -0 -0.012269 -0.00324817 0.000675346 -1.74678e-018 3.88251e-019 -0 0 0 -0 0 0 -0 0 0 -0 0 0 -0 0 0 -0 0 0 -0 0 0 -0 0 0 -0 0 0 -0 0 0 -0 0 0 -0 0.0149955 -9.10982e-005 2.64101e-007 -9.69331e-018 1.21329e-020 -4.7394e-023 0 0 -0 0.0189956 -0.00119102 -5.96516e-005 -5.41541e-019 0 2.42657e-020 0 0 -0 0.0122698 -0.00324857 -0.000673756 -2.00796e-019 0 -1.94126e-019 0 0 -0 0 0 -0 0 0 -0 3.39842 1.33031 -0.0637918 -5.65207e-008 0.834868 -0.000436188 -3.39935 -2.16518 -0.0642563 -8.89002e-024 -1.18485e-023 -1.48106e-024 -3.39844 1.35642 0.0640283 -3.18788e-007 0.782166 -0.000588827 3.39931 -2.13858 0.0634662 1.1399e-023 0 -0 
3.77513 45.437 -13.0232 0 16.5408 -0 0.447146 4.71378 -0.142644 0.910762 9.42628 -0.323996 0.910762 9.42629 -0.323996 0.0808337 -0.425538 -0.0155471 0.00825651 -0.479896 -0.00395772 -5.64285 -4.91757 -7.1954 -21.5593 5.81283 -24.7116 -1.21576 -9.48334 -15.7712 5.04145 -19.6543 3.51682 1.74012e-006 3.84374e-007 -1.61544e-007 6.26286e-006 1.27656e-006 6.49107e-008 -1.35174e-014 -3.18055e-015 3.18055e-015 1.74012e-006 3.84374e-007 -1.61544e-007 -0.0146002 -8.65937e-005 -1.33173e-006 1.74195e-006 3.84405e-007 -1.61497e-007 1.74012e-006 3.84374e-007 -1.61544e-007 -0.0187425 -0.00117456 6.05083e-005 1.59028e-015 0 -0 1.74012e-006 3.84374e-007 -1.61544e-007 -0.0122678 -0.00324615 0.000673987 5.29669e-031 4.77083e-015 -6.36111e-015 1.74012e-006 3.84374e-007 -1.61544e-007 6.26286e-006 1.27656e-006 6.49107e-008 -1.35174e-014 -3.18055e-015 3.18055e-015 0.836914 -6.35086 7.80228 18.9774 3.49647 29.8531 1.63495 -9.4958 17.4724 -9.34763 -19.109 -4.955 1.59028e-015 -3.18055e-015 -6.36111e-015 -2.38542e-015 -4.77083e-015 -0 0 0 -6.36111e-015 1.59028e-015 -3.18055e-015 -6.36111e-015 0.0149071 -9.1649e-005 -5.91256e-006 -1.32417e-031 2.38542e-015 3.18055e-015 1.59028e-015 -3.18055e-015 -6.36111e-015 0.0190167 -0.00119169 -5.95207e-005 3.97569e-015 -7.95139e-016 6.36111e-015 1.59028e-015 -3.18055e-015 -6.36111e-015 0.0122432 -0.0032424 -0.000678791 -3.18055e-015 1.59028e-015 -0 1.59028e-015 -3.18055e-015 -6.36111e-015 -2.38542e-015 -4.77083e-015 -0 0 0 -6.36111e-015 -6.03615 -28.4135 -1.56217 0.666614 62.2293 0.425541 -4.55566 22.7407 4.96291 -1.32053e-006 -2.90693e-008 3.44587e-007 14.7444 -25.2366 -0.0902469 -1.26439 54.9359 0.494173 1.31707 26.8128 -13.4201 1.96249e-006 -7.11083e-008 -1.18358e-006 
7.08688 25.173 -27.763 0 31.1665 -0 0.861152 8.878 -0.415225 1.82178 17.7483 -0.985468 1.82179 17.7483 -0.985469 0.161703 -0.85035 -0.0291394 0.0165349 -0.959492 -0.00765423 -11.6532 -9.08129 -13.6912 -36.815 8.27142 -46.972 -6.59794 -16.1112 -30.6209 11.9498 -36.8429 7.76889 3.97569e-016 0 1.59028e-015 -7.95139e-016 7.95139e-016 3.18055e-015 -5.96354e-016 7.95139e-016 3.18055e-015 3.97569e-016 0 1.59028e-015 -0.014608 -8.8574e-005 -9.24851e-007 -3.97569e-016 -1.59028e-015 4.77083e-015 3.97569e-016 0 1.59028e-015 -0.0187426 -0.00117511 5.87078e-005 -9.93923e-016 -7.95139e-016 -1.59028e-015 3.97569e-016 0 1.59028e-015 -0.0122737 -0.00324838 0.000676753 -3.97569e-016 -1.59028e-015 -1.59028e-015 3.97569e-016 0 1.59028e-015 -7.95139e-016 7.95139e-016 3.18055e-015 -5.96354e-016 7.95139e-016 3.18055e-015 3.01366 -11.6859 14.9261 33.1595 4.19732 56.3919 7.79847 -15.7298 33.8857 -20.9584 -35.6279 -10.8832 -0 0 3.18055e-015 -7.95139e-016 7.95139e-016 3.18055e-015 -3.97569e-016 1.59028e-015 -0 -0 0 3.18055e-015 0.0150038 -9.33481e-005 2.54734e-006 -7.95139e-016 7.95139e-016 -0 -0 0 3.18055e-015 0.0189958 -0.00119102 -6.03293e-005 -3.97569e-016 2.38542e-015 -0 -0 0 3.18055e-015 0.0122795 -0.00325218 -0.000677743 -7.18664e-008 8.00305e-007 -1.33796e-006 -0 0 3.18055e-015 -7.95139e-016 7.95139e-016 3.18055e-015 -3.97569e-016 1.59028e-015 -0 -14.8166 -54.0822 -4.36202 -171.451 65.3938 171.321 -10.576 45.7805 11.873 -3.69792e-007 2.36951e-006 7.1165e-007 29.7589 -48.3623 -0.373982 162.852 79.0177 -164.227 15.1034 50.1086 -33.8003 -4.93672e-007 -6.34591e-006 9.24728e-007 
8.27029 17.9067 -33.1477 0 36.4959 -0 1.01619 10.4009 -0.549529 2.19138 20.7894 -1.32381 2.19138 20.7894 -1.32382 0.243856 -1.27416 -0.0333543 0.0251848 -1.43775 -0.0100854 -14.027 -10.5358 -16.157 -41.5158 8.06898 -55.2441 -9.45725 -17.809 -36.287 15.2252 -43.0218 9.73973 2.82735e-007 -1.27338e-006 1.08783e-006 -1.41368e-007 6.3669e-007 -5.43913e-007 4.24103e-007 -1.91007e-006 1.63174e-006 2.82735e-007 -1.27338e-006 1.08783e-006 -0.0145969 -8.99413e-005 -7.036e-007 4.24138e-007 -1.91028e-006 1.6315e-006 2.82735e-007 -1.27338e-006 1.08783e-006 -0.0187693 -0.00117736 5.89089e-005 4.24162e-007 -1.91033e-006 1.63142e-006 2.82735e-007 -1.27338e-006 1.08783e-006 -0.0122724 -0.00325212 0.000675906 -4.26021e-007 -1.38354e-006 1.38959e-006 2.82735e-007 -1.27338e-006 1.08783e-006 -1.41368e-007 6.3669e-007 -5.43913e-007 4.24103e-007 -1.91007e-006 1.63174e-006 4.05874 -13.5366 17.6086 37.799 3.50463 66.1603 10.9817 -17.126 40.1146 -26.4552 -41.4017 -13.8964 -1.43125e-014 6.36111e-015 9.54166e-015 -1.11319e-014 0 3.18055e-015 -1.43125e-014 3.18055e-015 3.18055e-015 -1.43125e-014 6.36111e-015 9.54166e-015 0.0149869 -8.97916e-005 -1.46857e-006 -3.18055e-015 0 -0 -1.43125e-014 6.36111e-015 9.54166e-015 0.0189934 -0.00119059 -5.73251e-005 -6.36111e-015 3.18055e-015 -6.36111e-015 -1.43125e-014 6.36111e-015 9.54166e-015 0.0122688 -0.0032429 -0.000680355 1.59028e-015 6.36111e-015 3.18055e-015 -1.43125e-014 6.36111e-015 9.54166e-015 -1.11319e-014 0 3.18055e-015 -1.43125e-014 3.18055e-015 3.18055e-015 -18.1697 -63.6525 -6.58383 -172.81 46.4594 171.07 -14.7341 54.3242 15.8552 -3.09666e-007 3.35946e-006 -8.60353e-008 34.6794 -56.9429 -0.683921 168.923 62.7201 -169.575 27.6645 56.1802 -47.8753 -1.37545e-007 2.82371e-008 -8.38839e-007 
